<svg xmlns="http://www.w3.org/2000/svg" xmlns:xlink="http://www.w3.org/1999/xlink" viewBox="0,0,256,256" width="64px" height="64px" fill-rule="nonzero"><g fill="none" fill-rule="nonzero" stroke="none" stroke-width="none" stroke-linecap="none" stroke-linejoin="none" stroke-miterlimit="10" stroke-dasharray="" stroke-dashoffset="0" font-family="none" font-weight="none" font-size="none" text-anchor="none" style="mix-blend-mode: normal"><g transform="scale(4,4)"><path d="M54,27.652h-4.058c-0.456,-1.885 -1.198,-3.653 -2.182,-5.263l2.871,-2.871c1.172,-1.172 1.172,-3.071 0,-4.243l-1.906,-1.906c-1.172,-1.172 -3.071,-1.172 -4.243,0l-2.871,2.871c-1.61,-0.984 -3.378,-1.727 -5.263,-2.182v-4.058c0,-1.657 -1.343,-3 -3,-3h-2.696c-1.657,0 -3,1.343 -3,3v4.058c-1.885,0.456 -3.653,1.198 -5.263,2.182l-2.871,-2.871c-1.172,-1.172 -3.071,-1.172 -4.243,0l-1.906,1.906c-1.172,1.172 -1.172,3.071 0,4.243l2.871,2.871c-0.984,1.61 -1.727,3.378 -2.182,5.263h-4.058c-1.657,0 -3,1.343 -3,3v2.696c0,1.657 1.343,3 3,3h4.058c0.456,1.885 1.198,3.653 2.182,5.263l-2.871,2.871c-1.172,1.172 -1.172,3.071 0,4.243l1.906,1.906c1.172,1.172 3.071,1.172 4.243,0l2.871,-2.871c1.61,0.984 3.378,1.727 5.263,2.182v4.058c0,1.657 1.343,3 3,3h2.696c1.657,0 3,-1.343 3,-3v-4.058c1.885,-0.456 3.653,-1.198 5.263,-2.182l2.871,2.871c1.172,1.172 3.071,1.172 4.243,0l1.906,-1.906c1.172,-1.172 1.172,-3.071 0,-4.243l-2.871,-2.871c0.984,-1.61 1.727,-3.378 2.182,-5.263h4.058c1.657,0 3,-1.343 3,-3v-2.696c0,-1.657 -1.343,-3 -3,-3zM32,38c-3.314,0 -6,-2.686 -6,-6c0,-3.314 2.686,-6 6,-6c3.314,0 6,2.686 6,6c0,3.314 -2.686,6 -6,6z" fill="#ffa500" stroke="none" stroke-width="1" stroke-linecap="butt" stroke-linejoin="miter"></path><ellipse cx="32" cy="61" rx="19" ry="3" fill="#000000" stroke="none" stroke-width="1" stroke-linecap="butt" stroke-linejoin="miter" opacity="0.3"></ellipse><path d="M29.656,18.198c0.753,-0.127 1.462,-0.476 1.934,-1.077c0.669,-0.852 1.063,-1.917 1.063,-3.063v-4.058c0,-1.131 -0.39,-2.162 -1.023,-3h-0.977c-1.657,0 -3,1.343 -3,3v4.058c-1.885,0.456 -3.653,1.198 -5.263,2.182l-2.871,-2.871c-1.172,-1.172 -3.071,-1.172 -4.243,0l-1.906,1.906c-1.172,1.172 -1.172,3.071 0,4.243l2.871,2.871c-0.984,1.61 -1.727,3.378 -2.182,5.263h-4.059c-1.657,0 -3,1.343 -3,3v0.977c0.838,0.633 1.869,1.023 3,1.023h4.058c1.145,0 2.211,-0.394 3.063,-1.063c0.601,-0.472 0.95,-1.18 1.077,-1.934c0.987,-5.852 5.605,-10.47 11.458,-11.457z" fill="#ffffff" stroke="none" stroke-width="1" stroke-linecap="butt" stroke-linejoin="miter" opacity="0.3"></path><path d="M54,31.348h-4.058c-1.145,0 -2.211,0.394 -3.063,1.063c-0.601,0.472 -0.95,1.18 -1.077,1.934c-0.987,5.853 -5.605,10.471 -11.458,11.458c-0.753,0.127 -1.462,0.476 -1.934,1.077c-0.669,0.852 -1.063,1.917 -1.063,3.063v4.057c0,1.131 0.39,2.162 1.023,3h0.977c1.657,0 3,-1.343 3,-3v-4.058c1.885,-0.456 3.653,-1.198 5.263,-2.182l2.871,2.871c1.172,1.172 3.071,1.172 4.243,0l1.906,-1.906c1.172,-1.172 1.172,-3.071 0,-4.243l-2.871,-2.871c0.984,-1.61 1.727,-3.378 2.182,-5.263h4.059c1.657,0 3,-1.343 3,-3v-0.978c-0.838,-0.633 -1.869,-1.022 -3,-1.022z" fill="#000000" stroke="none" stroke-width="1" stroke-linecap="butt" stroke-linejoin="miter" opacity="0.15"></path><path d="M18.122,25.039c1.423,-2.967 3.826,-5.374 6.789,-6.803" fill="none" stroke="#ffffff" stroke-width="3" stroke-linecap="round" stroke-linejoin="round"></path><circle cx="32" cy="32" r="10.5" fill="none" stroke="#122484" stroke-width="3" stroke-linecap="butt" stroke-linejoin="miter"></circle></g></g></svg>